<svg version="1.1" id="Layer_1" xmlns="http://www.w3.org/2000/svg" xmlns:xlink="http://www.w3.org/1999/xlink" x="0px" y="0px"
	 width="100%" viewBox="0 0 806 138" enable-background="new 0 0 806 138" xml:space="preserve">
<path fill="#546ED9" opacity="1.000000" stroke="none" 
	d="
M651.000000,139.000000 
	C534.645264,139.000000 418.290466,139.000000 301.434326,138.533325 
	C300.952393,132.712250 300.971863,127.357841 301.458160,121.946915 
	C308.412842,121.868225 314.901367,121.898270 321.388336,121.812477 
	C333.128021,121.657219 331.848022,123.703423 331.998505,110.610939 
	C332.038055,107.173569 330.696533,105.866234 327.273315,105.939522 
	C320.455750,106.085480 313.631927,105.907654 306.811890,105.978333 
	C303.139496,106.016388 302.965454,103.670326 303.007050,100.968887 
	C303.047150,98.364632 302.968964,95.788025 306.697754,95.824379 
	C310.190796,95.858452 313.684631,95.805527 317.178131,95.797523 
	C327.410797,95.774101 327.293793,95.778412 327.032593,85.656059 
	C326.944489,82.240768 325.738098,80.858948 322.312042,80.950798 
	C317.159180,81.088943 311.998932,80.930191 306.841888,80.940102 
	C303.661804,80.946213 303.057098,78.994476 303.014587,76.336723 
	C302.970154,73.560318 303.792267,71.865387 306.936096,71.919724 
	C311.426392,71.997353 315.919647,71.953751 320.411072,71.908981 
	C332.297424,71.790497 330.792297,73.390244 331.052216,61.206879 
	C331.134369,57.355976 329.852600,55.861393 325.901001,55.927605 
	C317.590546,56.066856 309.273804,55.828556 300.964783,55.292564 
	C300.979950,36.893269 300.989990,18.946634 301.000000,1.000000 
	C387.688110,1.000000 474.376221,1.000000 561.429688,1.371411 
	C562.529541,3.381159 563.042358,5.169100 564.031921,6.635320 
	C577.880676,27.154795 591.771912,47.645771 605.716492,68.100243 
	C607.853760,71.235260 610.310425,74.152580 612.684448,77.605011 
	C612.749573,81.043419 612.749573,84.047401 612.749573,87.051384 
	C612.294861,87.154495 611.840210,87.257614 611.385498,87.360733 
	C604.876038,79.194847 598.003479,71.285286 591.991394,62.768272 
	C588.301880,57.541470 584.240784,55.370056 577.868103,55.824036 
	C573.614563,56.127056 572.030945,57.190411 572.089539,61.606831 
	C572.297363,77.258057 572.048035,92.914925 572.201050,108.567413 
	C572.349976,123.807182 569.642944,121.582512 585.857361,121.852127 
	C589.608032,121.914490 591.007629,120.287407 590.712952,116.744118 
	C590.588867,115.252274 590.499023,113.752914 590.494019,112.256645 
	C590.471252,105.402580 590.484009,98.548401 590.484009,91.694260 
	C592.717529,92.550659 593.711487,93.606110 594.627319,94.725395 
	C601.269470,102.842995 607.841980,111.018784 614.583557,119.052704 
	C615.633362,120.303749 617.452576,121.746147 618.881226,121.710403 
	C630.761169,121.413170 630.758667,121.314575 631.115051,109.516960 
	C631.120117,109.350555 631.133057,109.184395 631.482849,109.062790 
	C632.943604,110.013702 634.359558,110.719055 635.134399,111.859886 
	C639.134338,117.749855 643.112305,123.665138 646.800720,129.751678 
	C648.543091,132.626846 649.620972,135.904663 651.000000,139.000000 
M343.933960,93.448860 
	C342.560974,96.298439 341.130249,99.121849 339.825043,102.002151 
	C334.378326,114.021889 334.317566,114.235977 346.870911,118.740784 
	C362.963806,124.515762 379.381226,127.435677 396.297729,122.315369 
	C408.782410,118.536507 416.847443,108.987289 417.880951,96.937782 
	C419.189514,81.681496 414.369324,72.418648 400.992126,66.181213 
	C394.691498,63.243404 387.877716,61.409729 381.307709,59.044491 
	C378.181824,57.919136 374.806091,57.151833 372.070404,55.399708 
	C370.325867,54.282375 368.277344,51.324268 368.677643,49.798023 
	C369.113586,48.135830 372.126282,46.337936 374.189941,46.097866 
	C377.573486,45.704250 381.259644,45.978233 384.525848,46.951591 
	C389.759125,48.511169 394.823273,50.716763 399.820740,52.957478 
	C402.511627,54.163986 404.102783,53.827450 405.445740,51.151268 
	C408.058563,45.944645 410.771881,40.784172 413.601379,35.692276 
	C415.144043,32.916191 414.911194,30.948862 411.715393,29.893465 
	C402.891235,26.979321 394.232666,23.131603 385.175201,21.463909 
	C373.477081,19.310007 361.915558,21.002188 351.848907,28.375378 
	C341.362854,36.055756 338.023254,46.738564 339.098083,59.127903 
	C340.065674,70.280983 347.222351,76.606384 356.904297,80.542137 
	C362.288971,82.731056 367.887360,84.388527 373.349884,86.393402 
	C377.243866,87.822594 381.202026,89.182648 384.859039,91.094757 
	C386.143982,91.766579 387.585327,94.300125 387.223267,95.427185 
	C386.744415,96.917763 384.678650,98.068985 383.070099,98.960190 
	C382.153351,99.468109 380.789490,99.181053 379.626038,99.229805 
	C369.051727,99.673042 359.741394,95.645157 350.740448,90.799988 
	C347.557800,89.086792 345.488159,89.100594 343.933960,93.448860 
M562.399780,70.778168 
	C562.604919,67.478638 562.746643,64.173622 563.032043,60.881046 
	C563.352234,57.187065 561.724731,55.898399 558.079773,55.941288 
	C546.084106,56.082443 534.084290,56.101242 522.089355,55.930019 
	C518.155640,55.873863 516.861084,57.339985 516.889282,61.201836 
	C517.024536,79.696701 517.032227,98.193665 516.893799,116.688446 
	C516.864258,120.635185 518.326477,121.950783 522.173157,121.886971 
	C532.501343,121.715599 542.834839,121.894585 553.165039,121.802429 
	C565.200378,121.695068 563.875244,123.845314 563.996765,110.305634 
	C564.026001,107.045280 562.613220,105.899796 559.469360,105.955231 
	C552.806396,106.072716 546.136902,105.863297 539.475769,106.024445 
	C535.817810,106.112938 534.979553,104.320602 534.983276,101.103180 
	C534.987122,97.801796 535.584961,95.545502 539.610352,95.780754 
	C542.765076,95.965126 545.940613,95.843018 549.105774,95.789879 
	C559.647583,95.612885 559.076355,98.009224 559.008789,84.869278 
	C558.994690,82.119255 557.733032,80.962769 555.044861,80.986557 
	C550.213196,81.029312 545.379639,80.912460 540.548828,80.986801 
	C537.369751,81.035728 535.056763,80.583778 534.989014,76.500618 
	C534.921875,72.459106 537.033142,71.899490 540.327332,71.882401 
	C547.468323,71.845367 554.607910,71.557510 562.399780,70.778168 
M441.463409,99.865608 
	C440.904388,98.845657 440.251709,97.865295 439.801300,96.799446 
	C436.426819,88.814407 438.529755,78.818863 444.466370,74.439705 
	C450.244354,70.177574 457.786957,71.357018 465.601685,77.597153 
	C466.340057,78.186760 468.022919,78.648903 468.581635,78.237961 
	C472.391327,75.435890 476.017365,72.384125 479.702667,69.412926 
	C476.639282,66.242668 473.616272,63.031574 470.480530,59.934578 
	C469.806213,59.268551 468.749939,58.952484 467.827271,58.580006 
	C443.045471,48.575630 417.432831,65.733376 420.020447,91.661758 
	C421.381775,105.302216 428.805054,115.149506 441.420074,119.977753 
	C454.004700,124.794373 466.122559,122.318970 476.444427,113.525810 
	C482.092163,108.714493 481.698059,107.363258 475.301331,103.535164 
	C473.588074,102.509872 471.806885,101.583572 470.170105,100.448555 
	C468.079376,98.998772 466.571808,99.057327 464.565063,100.989639 
	C457.109955,108.168213 449.028412,107.873634 441.463409,99.865608 
M487.816864,120.542732 
	C491.848572,120.974304 495.884735,121.368324 499.910828,121.847313 
	C504.541321,122.398216 505.948822,120.281776 505.893372,115.807999 
	C505.701996,100.355980 505.997040,84.897591 505.775726,69.446373 
	C505.547424,53.504337 509.173737,56.217518 491.033600,55.983932 
	C488.238434,55.947945 487.185455,57.299953 487.199615,59.944942 
	C487.306458,79.879219 487.382538,99.813667 487.816864,120.542732 
z"/>
<path fill="#2C44D9" opacity="1.000000" stroke="none" 
	d="
M651.468628,139.000000 
	C649.620972,135.904663 648.543091,132.626846 646.800720,129.751678 
	C643.112305,123.665138 639.134338,117.749855 635.134399,111.859886 
	C634.359558,110.719055 632.943604,110.013702 631.432373,108.595871 
	C631.032898,94.941498 631.138855,81.797379 630.984985,68.656311 
	C630.816223,54.251480 633.390747,56.198437 617.721680,55.980789 
	C614.321838,55.933563 612.935486,57.326485 612.953979,60.722595 
	C612.983948,66.204483 612.744812,71.687843 612.619324,77.170578 
	C610.310425,74.152580 607.853760,71.235260 605.716492,68.100243 
	C591.771912,47.645771 577.880676,27.154795 564.031921,6.635320 
	C563.042358,5.169100 562.529541,3.381159 561.897522,1.371411 
	C643.600342,1.000000 725.200684,1.000000 806.900513,1.000000 
	C806.900513,46.896130 806.900513,92.792549 806.900513,139.000000 
	C755.312866,139.000000 703.625061,139.000000 651.468628,139.000000 
M737.517151,100.000427 
	C736.363708,103.298637 735.244690,106.609390 734.050598,109.892830 
	C729.404907,122.667213 728.706848,121.900276 743.356445,121.968864 
	C747.123535,121.986504 749.166992,120.611214 750.103394,116.869499 
	C750.726196,114.380821 751.833740,110.397583 753.379517,110.056953 
	C758.128479,109.010468 763.291809,108.782852 768.081970,109.554024 
	C769.783752,109.827995 770.883240,113.879486 772.245667,116.213562 
	C773.287109,117.997894 774.157043,121.208862 775.366760,121.339149 
	C780.648193,121.908028 786.025879,121.583809 792.089783,121.583809 
	C791.198242,118.591728 790.708008,116.687981 790.067139,114.836395 
	C784.518738,98.805817 778.986511,82.769409 773.361877,66.765511 
	C769.006104,54.371788 772.026001,56.244881 757.808228,55.970600 
	C754.276245,55.902462 752.394836,57.188103 751.241882,60.610626 
	C746.887207,73.537888 742.277283,86.379158 737.517151,100.000427 
M692.268860,102.196854 
	C688.341125,99.044563 684.970520,98.834251 681.179443,102.950508 
	C679.497253,104.776947 676.183472,105.595947 673.499329,105.903717 
	C667.452026,106.597107 662.744812,103.823837 659.836182,98.581856 
	C656.181641,91.995644 655.985962,85.085129 660.037537,78.651115 
	C664.721436,71.212982 675.454163,69.076866 681.173401,74.892593 
	C685.433594,79.224648 688.494629,79.022209 692.378418,75.176575 
	C693.309875,74.254234 694.499939,73.560616 695.648926,72.896507 
	C699.103821,70.899742 699.277649,68.896317 696.507751,65.845474 
	C689.435181,58.055298 680.650635,55.628586 670.441650,55.862911 
	C649.502502,56.343529 634.170654,76.674820 639.834961,96.895187 
	C646.399109,120.327805 671.927917,129.553787 692.545410,115.944481 
	C701.079834,110.311043 701.143677,107.766113 692.268860,102.196854 
M706.094910,98.499931 
	C706.096802,102.162460 706.078003,105.825142 706.104309,109.487488 
	C706.203613,123.297646 704.478821,121.695297 718.775696,121.991798 
	C723.703369,122.093987 725.044739,120.060822 724.985535,115.446556 
	C724.786987,99.966431 724.990906,84.481621 724.878906,68.999779 
	C724.769958,53.950691 727.123352,56.315739 711.481995,55.935562 
	C707.274780,55.833305 705.977478,57.522827 706.033325,61.541115 
	C706.199890,73.525375 706.094543,85.513405 706.094910,98.499931 
z"/>
<path fill="#5E7BD9" opacity="1.000000" stroke="none" 
	d="
M172.000000,139.000000 
	C115.051765,139.000000 58.103527,139.000000 1.077646,139.000000 
	C1.077646,93.093651 1.077646,47.187134 1.077646,1.000000 
	C58.353924,1.000000 115.708305,1.000000 173.529282,1.391427 
	C169.641113,11.398230 171.059174,21.614309 171.066757,31.639265 
	C171.072815,39.672779 171.674286,47.705841 171.575455,55.810822 
	C164.180771,56.163181 164.179718,56.163181 164.178299,63.218521 
	C164.174942,79.964470 164.170975,96.710411 164.170685,113.456360 
	C164.170532,121.504265 164.174042,121.504265 171.929810,122.342873 
	C171.044769,125.162735 171.457687,126.647156 174.475830,127.111420 
	C178.792557,127.775444 177.300629,129.662704 175.471756,132.045609 
	C173.923126,134.063354 173.128372,136.659698 172.000000,139.000000 
M21.212248,33.535133 
	C21.212666,61.693241 21.215845,89.851349 21.209364,118.009460 
	C21.208694,120.921661 20.929167,123.761909 25.328480,123.744034 
	C47.154827,123.655365 68.981728,123.685661 90.808388,123.712799 
	C93.538048,123.716194 94.740448,122.518745 94.706993,119.792725 
	C94.647697,114.961784 94.446945,110.111107 94.787437,105.302826 
	C95.120087,100.605446 93.639816,98.792259 88.678154,98.973778 
	C79.027214,99.326866 69.353851,99.143272 59.690697,99.066841 
	C48.645592,98.979485 49.889797,100.486191 49.598907,88.776474 
	C49.491390,84.448563 50.883595,82.852814 55.304462,82.987976 
	C64.126907,83.257713 72.966888,82.922638 81.792503,83.134361 
	C85.738754,83.229027 87.174461,81.791489 86.946312,77.899117 
	C86.702995,73.748032 86.700050,69.559769 86.951477,65.409500 
	C87.186241,61.534302 85.802681,60.058346 81.835365,60.149513 
	C72.842896,60.356152 63.839729,60.081776 54.846146,60.262833 
	C50.921383,60.341843 49.296284,58.824501 49.670368,54.975708 
	C49.766605,53.985580 49.780815,52.965637 49.661388,51.980148 
	C49.120533,47.517029 50.793434,45.774605 55.517189,45.907215 
	C66.338730,46.211010 77.177116,45.869499 88.003517,46.069122 
	C91.960930,46.142094 93.378868,44.702244 93.168732,40.834255 
	C92.943100,36.681202 93.132225,32.506180 93.121002,28.340796 
	C93.102295,21.398125 93.095818,21.369677 86.342781,21.363712 
	C68.348167,21.347818 50.353230,21.294954 32.359009,21.380657 
	C19.526421,21.441776 21.432594,19.817989 21.212248,33.535133 
M117.600586,120.432037 
	C121.012718,114.673470 124.424858,108.914894 128.336319,102.313622 
	C131.751633,108.226433 134.469818,113.156044 137.435745,117.931786 
	C138.334229,119.378510 139.846695,121.346657 141.200699,121.448822 
	C146.573715,121.854248 151.995331,121.615570 158.543777,121.615570 
	C157.048309,119.035324 156.240509,117.486435 155.291260,116.029724 
	C150.291916,108.357674 145.369217,100.631470 140.175354,93.092567 
	C138.268051,90.324120 138.297318,88.224358 140.197723,85.479477 
	C145.693878,77.541000 150.953964,69.438377 156.257156,61.367619 
	C157.183136,59.958385 157.868454,58.390995 159.154968,55.977234 
	C154.196060,55.977234 150.376450,56.229702 146.604828,55.912052 
	C142.092560,55.532032 139.173798,56.901436 137.113281,61.211571 
	C134.794662,66.061584 131.658920,70.520958 128.197113,76.285019 
	C124.616257,70.206665 121.761551,65.215034 118.743050,60.324505 
	C117.816315,58.823017 116.518845,56.521919 115.258186,56.431019 
	C109.458290,56.012810 103.611374,56.246765 96.724640,56.246765 
	C103.632942,66.689171 109.678024,76.039322 115.973656,85.217621 
	C117.943680,88.089676 118.194374,90.294296 116.090424,93.259399 
	C111.757637,99.365608 107.800156,105.738693 103.708527,112.015190 
	C101.856903,114.855560 100.053772,117.727547 98.228645,120.585190 
	C98.476578,121.073524 98.724503,121.561867 98.972435,122.050201 
	C104.994293,121.694443 111.016159,121.338676 117.600586,120.432037 
z"/>
<path fill="#627ED9" opacity="1.000000" stroke="none" 
	d="
M172.011520,55.739105 
	C171.674286,47.705841 171.072815,39.672779 171.066757,31.639265 
	C171.059174,21.614309 169.641113,11.398230 173.997940,1.391427 
	C216.020889,1.000000 258.041779,1.000000 300.531342,1.000000 
	C300.989990,18.946634 300.979950,36.893269 300.504700,55.360680 
	C296.376587,55.920689 292.711151,56.060230 289.051575,55.967793 
	C286.059235,55.892212 284.891022,57.182182 284.899353,60.136330 
	C284.953552,79.287849 284.959686,98.439697 284.895538,117.591148 
	C284.885620,120.555878 286.034882,121.832077 289.011444,121.799995 
	C293.003540,121.756950 296.997894,121.925644 300.991302,122.003433 
	C300.971863,127.357841 300.952393,132.712250 300.966492,138.533325 
	C259.312439,139.000000 217.624878,139.000000 175.802811,138.734924 
	C175.110123,138.203964 174.551926,137.938049 173.993744,137.672150 
	C173.995819,138.114761 173.997910,138.557388 174.000000,139.000000 
	C173.555557,139.000000 173.111099,139.000000 172.333328,139.000000 
	C173.128372,136.659698 173.923126,134.063354 175.471756,132.045609 
	C177.300629,129.662704 178.792557,127.775444 174.475830,127.111420 
	C171.457687,126.647156 171.044769,125.162735 172.373596,122.287025 
	C176.184113,121.594902 179.478882,121.307610 183.102295,120.866577 
	C185.630997,118.574974 185.611282,116.651352 182.825317,114.527420 
	C182.566788,102.275726 182.566788,102.275726 193.738312,101.674866 
	C205.876648,101.022011 214.947571,91.250336 214.954254,78.819977 
	C214.960709,66.796776 205.442032,56.575943 193.495804,56.063343 
	C186.342896,55.756424 179.173508,55.834225 172.011520,55.739105 
M262.665161,58.714256 
	C258.998535,57.808151 255.362000,56.305378 251.659134,56.118851 
	C243.692688,55.717548 235.683212,56.219090 227.708908,55.905037 
	C223.201981,55.727539 222.031708,57.439011 222.084763,61.698147 
	C222.281677,77.502586 222.043854,93.312111 222.196060,109.117538 
	C222.337143,123.767212 219.754547,121.500053 235.324509,121.851509 
	C239.125381,121.937309 240.904724,120.732040 240.631104,116.737999 
	C240.415543,113.591408 240.318726,110.386131 240.690033,107.268974 
	C240.910141,105.421150 242.140839,103.693718 242.917145,101.912155 
	C244.950745,102.947319 247.693970,103.471756 248.878723,105.117859 
	C251.876007,109.282288 254.078217,114.009956 256.808624,118.381012 
	C257.625000,119.687904 259.086090,121.418854 260.333740,121.488556 
	C266.206207,121.816643 272.107117,121.634621 279.176788,121.634621 
	C274.926086,114.263542 271.378754,107.937531 267.646729,101.722420 
	C266.054260,99.070419 266.144165,97.230988 268.378632,94.749756 
	C278.652405,83.341393 276.336304,67.849152 262.665161,58.714256 
z"/>
<path fill="#000000" opacity="1.000000" stroke="none" 
	d="
M174.250000,139.000000 
	C173.997910,138.557388 173.995819,138.114761 173.993744,137.672150 
	C174.551926,137.938049 175.110123,138.203964 175.334152,138.734924 
	C175.000000,139.000000 174.500000,139.000000 174.250000,139.000000 
z"/>
<path fill="#1630A3" opacity="1.000000" stroke="none" 
	d="
M344.093201,93.123672 
	C345.488159,89.100594 347.557800,89.086792 350.740448,90.799988 
	C359.741394,95.645157 369.051727,99.673042 379.626038,99.229805 
	C380.789490,99.181053 382.153351,99.468109 383.070099,98.960190 
	C384.678650,98.068985 386.744415,96.917763 387.223267,95.427185 
	C387.585327,94.300125 386.143982,91.766579 384.859039,91.094757 
	C381.202026,89.182648 377.243866,87.822594 373.349884,86.393402 
	C367.887360,84.388527 362.288971,82.731056 356.904297,80.542137 
	C347.222351,76.606384 340.065674,70.280983 339.098083,59.127903 
	C338.023254,46.738564 341.362854,36.055756 351.848907,28.375378 
	C361.915558,21.002188 373.477081,19.310007 385.175201,21.463909 
	C394.232666,23.131603 402.891235,26.979321 411.715393,29.893465 
	C414.911194,30.948862 415.144043,32.916191 413.601379,35.692276 
	C410.771881,40.784172 408.058563,45.944645 405.445740,51.151268 
	C404.102783,53.827450 402.511627,54.163986 399.820740,52.957478 
	C394.823273,50.716763 389.759125,48.511169 384.525848,46.951591 
	C381.259644,45.978233 377.573486,45.704250 374.189941,46.097866 
	C372.126282,46.337936 369.113586,48.135830 368.677643,49.798023 
	C368.277344,51.324268 370.325867,54.282375 372.070404,55.399708 
	C374.806091,57.151833 378.181824,57.919136 381.307709,59.044491 
	C387.877716,61.409729 394.691498,63.243404 400.992126,66.181213 
	C414.369324,72.418648 419.189514,81.681496 417.880951,96.937782 
	C416.847443,108.987289 408.782410,118.536507 396.297729,122.315369 
	C379.381226,127.435677 362.963806,124.515762 346.870911,118.740784 
	C334.317566,114.235977 334.378326,114.021889 339.825043,102.002151 
	C341.130249,99.121849 342.560974,96.298439 344.093201,93.123672 
z"/>
<path fill="#1730A4" opacity="1.000000" stroke="none" 
	d="
M612.684448,77.605011 
	C612.744812,71.687843 612.983948,66.204483 612.953979,60.722595 
	C612.935486,57.326485 614.321838,55.933563 617.721680,55.980789 
	C633.390747,56.198437 630.816223,54.251480 630.984985,68.656311 
	C631.138855,81.797379 631.032898,94.941498 631.091919,108.551193 
	C631.133057,109.184395 631.120117,109.350555 631.115051,109.516960 
	C630.758667,121.314575 630.761169,121.413170 618.881226,121.710403 
	C617.452576,121.746147 615.633362,120.303749 614.583557,119.052704 
	C607.841980,111.018784 601.269470,102.842995 594.627319,94.725395 
	C593.711487,93.606110 592.717529,92.550659 590.484009,91.694260 
	C590.484009,98.548401 590.471252,105.402580 590.494019,112.256645 
	C590.499023,113.752914 590.588867,115.252274 590.712952,116.744118 
	C591.007629,120.287407 589.608032,121.914490 585.857361,121.852127 
	C569.642944,121.582512 572.349976,123.807182 572.201050,108.567413 
	C572.048035,92.914925 572.297363,77.258057 572.089539,61.606831 
	C572.030945,57.190411 573.614563,56.127056 577.868103,55.824036 
	C584.240784,55.370056 588.301880,57.541470 591.991394,62.768272 
	C598.003479,71.285286 604.876038,79.194847 611.385498,87.360733 
	C611.840210,87.257614 612.294861,87.154495 612.749573,87.051384 
	C612.749573,84.047401 612.749573,81.043419 612.684448,77.605011 
z"/>
<path fill="#1731A4" opacity="1.000000" stroke="none" 
	d="
M562.073975,71.075195 
	C554.607910,71.557510 547.468323,71.845367 540.327332,71.882401 
	C537.033142,71.899490 534.921875,72.459106 534.989014,76.500618 
	C535.056763,80.583778 537.369751,81.035728 540.548828,80.986801 
	C545.379639,80.912460 550.213196,81.029312 555.044861,80.986557 
	C557.733032,80.962769 558.994690,82.119255 559.008789,84.869278 
	C559.076355,98.009224 559.647583,95.612885 549.105774,95.789879 
	C545.940613,95.843018 542.765076,95.965126 539.610352,95.780754 
	C535.584961,95.545502 534.987122,97.801796 534.983276,101.103180 
	C534.979553,104.320602 535.817810,106.112938 539.475769,106.024445 
	C546.136902,105.863297 552.806396,106.072716 559.469360,105.955231 
	C562.613220,105.899796 564.026001,107.045280 563.996765,110.305634 
	C563.875244,123.845314 565.200378,121.695068 553.165039,121.802429 
	C542.834839,121.894585 532.501343,121.715599 522.173157,121.886971 
	C518.326477,121.950783 516.864258,120.635185 516.893799,116.688446 
	C517.032227,98.193665 517.024536,79.696701 516.889282,61.201836 
	C516.861084,57.339985 518.155640,55.873863 522.089355,55.930019 
	C534.084290,56.101242 546.084106,56.082443 558.079773,55.941288 
	C561.724731,55.898399 563.352234,57.187065 563.032043,60.881046 
	C562.746643,64.173622 562.604919,67.478638 562.073975,71.075195 
z"/>
<path fill="#1731A3" opacity="1.000000" stroke="none" 
	d="
M301.458160,121.946915 
	C296.997894,121.925644 293.003540,121.756950 289.011444,121.799995 
	C286.034882,121.832077 284.885620,120.555878 284.895538,117.591148 
	C284.959686,98.439697 284.953552,79.287849 284.899353,60.136330 
	C284.891022,57.182182 286.059235,55.892212 289.051575,55.967793 
	C292.711151,56.060230 296.376587,55.920689 300.499573,55.813339 
	C309.273804,55.828556 317.590546,56.066856 325.901001,55.927605 
	C329.852600,55.861393 331.134369,57.355976 331.052216,61.206879 
	C330.792297,73.390244 332.297424,71.790497 320.411072,71.908981 
	C315.919647,71.953751 311.426392,71.997353 306.936096,71.919724 
	C303.792267,71.865387 302.970154,73.560318 303.014587,76.336723 
	C303.057098,78.994476 303.661804,80.946213 306.841888,80.940102 
	C311.998932,80.930191 317.159180,81.088943 322.312042,80.950798 
	C325.738098,80.858948 326.944489,82.240768 327.032593,85.656059 
	C327.293793,95.778412 327.410797,95.774101 317.178131,95.797523 
	C313.684631,95.805527 310.190796,95.858452 306.697754,95.824379 
	C302.968964,95.788025 303.047150,98.364632 303.007050,100.968887 
	C302.965454,103.670326 303.139496,106.016388 306.811890,105.978333 
	C313.631927,105.907654 320.455750,106.085480 327.273315,105.939522 
	C330.696533,105.866234 332.038055,107.173569 331.998505,110.610939 
	C331.848022,123.703423 333.128021,121.657219 321.388336,121.812477 
	C314.901367,121.898270 308.412842,121.868225 301.458160,121.946915 
z"/>
<path fill="#1731A3" opacity="1.000000" stroke="none" 
	d="
M441.682556,100.170044 
	C449.028412,107.873634 457.109955,108.168213 464.565063,100.989639 
	C466.571808,99.057327 468.079376,98.998772 470.170105,100.448555 
	C471.806885,101.583572 473.588074,102.509872 475.301331,103.535164 
	C481.698059,107.363258 482.092163,108.714493 476.444427,113.525810 
	C466.122559,122.318970 454.004700,124.794373 441.420074,119.977753 
	C428.805054,115.149506 421.381775,105.302216 420.020447,91.661758 
	C417.432831,65.733376 443.045471,48.575630 467.827271,58.580006 
	C468.749939,58.952484 469.806213,59.268551 470.480530,59.934578 
	C473.616272,63.031574 476.639282,66.242668 479.702667,69.412918 
	C476.017365,72.384125 472.391327,75.435890 468.581635,78.237961 
	C468.022919,78.648903 466.340057,78.186760 465.601685,77.597153 
	C457.786957,71.357018 450.244354,70.177574 444.466370,74.439705 
	C438.529755,78.818863 436.426819,88.814407 439.801300,96.799446 
	C440.251709,97.865295 440.904388,98.845657 441.682556,100.170044 
z"/>
<path fill="#1933A5" opacity="1.000000" stroke="none" 
	d="
M487.642517,120.145401 
	C487.382538,99.813667 487.306458,79.879219 487.199615,59.944942 
	C487.185455,57.299953 488.238434,55.947945 491.033600,55.983932 
	C509.173737,56.217518 505.547424,53.504337 505.775726,69.446373 
	C505.997040,84.897591 505.701996,100.355980 505.893372,115.807999 
	C505.948822,120.281776 504.541321,122.398216 499.910828,121.847313 
	C495.884735,121.368324 491.848572,120.974304 487.642517,120.145401 
z"/>
<path fill="#162FA4" opacity="1.000000" stroke="none" 
	d="
M737.640015,99.626511 
	C742.277283,86.379158 746.887207,73.537888 751.241882,60.610626 
	C752.394836,57.188103 754.276245,55.902462 757.808228,55.970600 
	C772.026001,56.244881 769.006104,54.371788 773.361877,66.765511 
	C778.986511,82.769409 784.518738,98.805817 790.067139,114.836395 
	C790.708008,116.687981 791.198242,118.591728 792.089783,121.583809 
	C786.025879,121.583809 780.648193,121.908028 775.366760,121.339149 
	C774.157043,121.208862 773.287109,117.997894 772.245667,116.213562 
	C770.883240,113.879486 769.783752,109.827995 768.081970,109.554024 
	C763.291809,108.782852 758.128479,109.010468 753.379517,110.056953 
	C751.833740,110.397583 750.726196,114.380821 750.103394,116.869499 
	C749.166992,120.611214 747.123535,121.986504 743.356445,121.968864 
	C728.706848,121.900276 729.404907,122.667213 734.050598,109.892830 
	C735.244690,106.609390 736.363708,103.298637 737.640015,99.626511 
M766.473022,94.631149 
	C764.998962,89.358055 763.524963,84.084953 762.050903,78.811859 
	C761.527954,78.872414 761.005066,78.932961 760.482117,78.993515 
	C758.912903,83.832687 757.237366,88.642220 755.871765,93.538223 
	C755.624390,94.425209 756.705750,96.617386 757.074829,96.594734 
	C760.193115,96.403305 763.288391,95.837296 766.473022,94.631149 
z"/>
<path fill="#162FA4" opacity="1.000000" stroke="none" 
	d="
M692.574585,102.393875 
	C701.143677,107.766113 701.079834,110.311043 692.545410,115.944481 
	C671.927917,129.553787 646.399109,120.327805 639.834961,96.895187 
	C634.170654,76.674820 649.502502,56.343529 670.441650,55.862911 
	C680.650635,55.628586 689.435181,58.055298 696.507751,65.845474 
	C699.277649,68.896317 699.103821,70.899742 695.648926,72.896507 
	C694.499939,73.560616 693.309875,74.254234 692.378418,75.176575 
	C688.494629,79.022209 685.433594,79.224648 681.173401,74.892593 
	C675.454163,69.076866 664.721436,71.212982 660.037537,78.651115 
	C655.985962,85.085129 656.181641,91.995644 659.836182,98.581856 
	C662.744812,103.823837 667.452026,106.597107 673.499329,105.903717 
	C676.183472,105.595947 679.497253,104.776947 681.179443,102.950508 
	C684.970520,98.834251 688.341125,99.044563 692.574585,102.393875 
z"/>
<path fill="#1730A5" opacity="1.000000" stroke="none" 
	d="
M706.095154,97.999947 
	C706.094543,85.513405 706.199890,73.525375 706.033325,61.541115 
	C705.977478,57.522827 707.274780,55.833305 711.481995,55.935562 
	C727.123352,56.315739 724.769958,53.950691 724.878906,68.999779 
	C724.990906,84.481621 724.786987,99.966431 724.985535,115.446556 
	C725.044739,120.060822 723.703369,122.093987 718.775696,121.991798 
	C704.478821,121.695297 706.203613,123.297646 706.104309,109.487488 
	C706.078003,105.825142 706.096802,102.162460 706.095154,97.999947 
z"/>
<path fill="#1731A3" opacity="1.000000" stroke="none" 
	d="
M21.214108,33.042747 
	C21.432594,19.817989 19.526421,21.441776 32.359009,21.380657 
	C50.353230,21.294954 68.348167,21.347818 86.342781,21.363712 
	C93.095818,21.369677 93.102295,21.398125 93.121002,28.340796 
	C93.132225,32.506180 92.943100,36.681202 93.168732,40.834255 
	C93.378868,44.702244 91.960930,46.142094 88.003517,46.069122 
	C77.177116,45.869499 66.338730,46.211010 55.517189,45.907215 
	C50.793434,45.774605 49.120533,47.517029 49.661388,51.980148 
	C49.780815,52.965637 49.766605,53.985580 49.670368,54.975708 
	C49.296284,58.824501 50.921383,60.341843 54.846146,60.262833 
	C63.839729,60.081776 72.842896,60.356152 81.835365,60.149513 
	C85.802681,60.058346 87.186241,61.534302 86.951477,65.409500 
	C86.700050,69.559769 86.702995,73.748032 86.946312,77.899117 
	C87.174461,81.791489 85.738754,83.229027 81.792503,83.134361 
	C72.966888,82.922638 64.126907,83.257713 55.304462,82.987976 
	C50.883595,82.852814 49.491390,84.448563 49.598907,88.776474 
	C49.889797,100.486191 48.645592,98.979485 59.690697,99.066841 
	C69.353851,99.143272 79.027214,99.326866 88.678154,98.973778 
	C93.639816,98.792259 95.120087,100.605446 94.787437,105.302826 
	C94.446945,110.111107 94.647697,114.961784 94.706993,119.792725 
	C94.740448,122.518745 93.538048,123.716194 90.808388,123.712799 
	C68.981728,123.685661 47.154827,123.655365 25.328480,123.744034 
	C20.929167,123.761909 21.208694,120.921661 21.209364,118.009460 
	C21.215845,89.851349 21.212666,61.693241 21.214108,33.042747 
z"/>
<path fill="#1831A3" opacity="1.000000" stroke="none" 
	d="
M182.773666,121.020325 
	C179.478882,121.307610 176.184113,121.594902 172.445526,121.938042 
	C164.174042,121.504265 164.170532,121.504265 164.170685,113.456360 
	C164.170975,96.710411 164.174942,79.964470 164.178299,63.218521 
	C164.179718,56.163181 164.180771,56.163181 171.575455,55.810822 
	C179.173508,55.834225 186.342896,55.756424 193.495804,56.063343 
	C205.442032,56.575943 214.960709,66.796776 214.954254,78.819977 
	C214.947571,91.250336 205.876648,101.022011 193.738312,101.674866 
	C182.566788,102.275726 182.566788,102.275726 182.769958,114.955101 
	C182.769775,117.570076 182.771713,119.295197 182.773666,121.020325 
M188.397598,71.878311 
	C186.425034,72.594017 182.859390,73.137871 182.760376,74.055687 
	C182.367493,77.697891 181.803696,82.523033 183.758514,84.822945 
	C185.224899,86.548187 190.932007,86.076477 193.818466,84.669525 
	C195.604706,83.798843 196.423904,79.305374 196.278824,76.510796 
	C196.080902,72.698074 192.778671,71.711632 188.397598,71.878311 
z"/>
<path fill="#1831A3" opacity="1.000000" stroke="none" 
	d="
M117.319305,120.707474 
	C111.016159,121.338676 104.994293,121.694443 98.972435,122.050201 
	C98.724503,121.561867 98.476578,121.073524 98.228645,120.585190 
	C100.053772,117.727547 101.856903,114.855560 103.708527,112.015190 
	C107.800156,105.738693 111.757637,99.365608 116.090424,93.259399 
	C118.194374,90.294296 117.943680,88.089676 115.973656,85.217621 
	C109.678024,76.039322 103.632942,66.689171 96.724640,56.246765 
	C103.611374,56.246765 109.458290,56.012810 115.258186,56.431019 
	C116.518845,56.521919 117.816315,58.823017 118.743050,60.324505 
	C121.761551,65.215034 124.616257,70.206665 128.197113,76.285019 
	C131.658920,70.520958 134.794662,66.061584 137.113281,61.211571 
	C139.173798,56.901436 142.092560,55.532032 146.604828,55.912052 
	C150.376450,56.229702 154.196060,55.977234 159.154968,55.977234 
	C157.868454,58.390995 157.183136,59.958385 156.257156,61.367619 
	C150.953964,69.438377 145.693878,77.541000 140.197723,85.479477 
	C138.297318,88.224358 138.268051,90.324120 140.175354,93.092567 
	C145.369217,100.631470 150.291916,108.357674 155.291260,116.029724 
	C156.240509,117.486435 157.048309,119.035324 158.543777,121.615570 
	C151.995331,121.615570 146.573715,121.854248 141.200699,121.448822 
	C139.846695,121.346657 138.334229,119.378510 137.435745,117.931786 
	C134.469818,113.156044 131.751633,108.226433 128.336319,102.313622 
	C124.424858,108.914894 121.012718,114.673470 117.319305,120.707474 
z"/>
<path fill="#1831A3" opacity="1.000000" stroke="none" 
	d="
M262.985779,58.902607 
	C276.336304,67.849152 278.652405,83.341393 268.378632,94.749756 
	C266.144165,97.230988 266.054260,99.070419 267.646729,101.722420 
	C271.378754,107.937531 274.926086,114.263542 279.176788,121.634621 
	C272.107117,121.634621 266.206207,121.816643 260.333740,121.488556 
	C259.086090,121.418854 257.625000,119.687904 256.808624,118.381012 
	C254.078217,114.009956 251.876007,109.282288 248.878723,105.117859 
	C247.693970,103.471756 244.950745,102.947319 242.917145,101.912155 
	C242.140839,103.693718 240.910141,105.421150 240.690033,107.268974 
	C240.318726,110.386131 240.415543,113.591408 240.631104,116.737999 
	C240.904724,120.732040 239.125381,121.937309 235.324509,121.851509 
	C219.754547,121.500053 222.337143,123.767212 222.196060,109.117538 
	C222.043854,93.312111 222.281677,77.502586 222.084763,61.698147 
	C222.031708,57.439011 223.201981,55.727539 227.708908,55.905037 
	C235.683212,56.219090 243.692688,55.717548 251.659134,56.118851 
	C255.362000,56.305378 258.998535,57.808151 262.985779,58.902607 
M255.039627,83.328156 
	C256.885254,77.814392 256.053467,73.810104 252.758270,72.345261 
	C245.289703,69.025200 239.993790,72.442902 240.191422,80.463058 
	C240.215912,81.456406 240.087845,82.527588 240.419571,83.417686 
	C240.727737,84.244576 241.611359,85.536217 242.146759,85.491364 
	C246.291733,85.144035 250.413681,84.521988 255.039627,83.328156 
z"/>
<path fill="#5E7BD9" opacity="1.000000" stroke="none" 
	d="
M183.102295,120.866577 
	C182.771713,119.295197 182.769775,117.570076 182.823181,115.417267 
	C185.611282,116.651352 185.630997,118.574974 183.102295,120.866577 
z"/>
<path fill="#2A42D2" opacity="1.000000" stroke="none" 
	d="
M766.431824,95.007477 
	C763.288391,95.837296 760.193115,96.403305 757.074829,96.594734 
	C756.705750,96.617386 755.624390,94.425209 755.871765,93.538223 
	C757.237366,88.642220 758.912903,83.832687 760.482117,78.993515 
	C761.005066,78.932961 761.527954,78.872414 762.050903,78.811859 
	C763.524963,84.084953 764.998962,89.358055 766.431824,95.007477 
z"/>
<path fill="#5C77D6" opacity="1.000000" stroke="none" 
	d="
M188.840973,71.880569 
	C192.778671,71.711632 196.080902,72.698074 196.278824,76.510796 
	C196.423904,79.305374 195.604706,83.798843 193.818466,84.669525 
	C190.932007,86.076477 185.224899,86.548187 183.758514,84.822945 
	C181.803696,82.523033 182.367493,77.697891 182.760376,74.055687 
	C182.859390,73.137871 186.425034,72.594017 188.840973,71.880569 
z"/>
<path fill="#5E79D7" opacity="1.000000" stroke="none" 
	d="
M254.791199,83.656578 
	C250.413681,84.521988 246.291733,85.144035 242.146759,85.491364 
	C241.611359,85.536217 240.727737,84.244576 240.419571,83.417686 
	C240.087845,82.527588 240.215912,81.456406 240.191422,80.463058 
	C239.993790,72.442902 245.289703,69.025200 252.758270,72.345261 
	C256.053467,73.810104 256.885254,77.814392 254.791199,83.656578 
z"/>
</svg>